<svg xmlns="http://www.w3.org/2000/svg" width="20" height="13.822" viewBox="0 0 20 13.822">
  <path id="Shape_3" data-name="Shape 3" d="M435,2799.282a.182.182,0,0,1-.038-.032,3.639,3.639,0,0,0-2.637-.939l-.031-.068a.023.023,0,0,1,.019-.006,3.187,3.187,0,0,0,1.621-.625c.056-.179-.012-.278-.212-.3a5.465,5.465,0,0,0-1.266.291c.48-.291.667-.495.561-.6a2.537,2.537,0,0,0-1.522.693c.2-.322.275-.5.225-.526a4.278,4.278,0,0,0-.673.538,10.127,10.127,0,0,0-.979,1.182l-.012.031a10.266,10.266,0,0,0-1.359,2.98l-.1.075-.019.018a5.023,5.023,0,0,0-1.4-1.151,16.941,16.941,0,0,0-2.307-1.156,20.223,20.223,0,0,0-2.936-1.162,2.759,2.759,0,0,0,1.615,2.486v.018a3.623,3.623,0,0,0-1.1.155c.068.971.8,1.638,2.182,2.009l-.007.018a1.637,1.637,0,0,0-1.34.52,2.43,2.43,0,0,0,2.426,1.212,1.638,1.638,0,0,0-.53.371.739.739,0,0,0-.212.742,1.356,1.356,0,0,0,1.359.594h0l.037.043-.019.018a5.184,5.184,0,0,1-4.134,1.509l-.025.012a5.353,5.353,0,0,1-3.179-1.342,9.769,9.769,0,0,0,4.551,3.389,11.394,11.394,0,0,0,6.465.148h.037a10.284,10.284,0,0,0,5.318-3.506,6.9,6.9,0,0,0,1.266-2.659,2.672,2.672,0,0,0,2.363-.89l-.012-.019a4.97,4.97,0,0,1-2.127-.117v-.112c0-.005,0-.005.007,0,1.154-.123,1.833-.475,2.051-1.058a3.4,3.4,0,0,1-2.382.025A4.76,4.76,0,0,0,435,2799.282Z" transform="translate(-419 -2797)" fill="#c6cacc"/>
</svg>
